<?xml version="1.0" encoding="UTF-8" standalone="no"?>
<svg
   width="2966.4937"
   height="544.97211"
   viewBox="0 0 2966.4937 544.9721"
   version="1.1"
   xml:space="preserve"
   style="clip-rule:evenodd;fill-rule:evenodd;stroke-linejoin:round;stroke-miterlimit:2"
   id="svg5"
   xmlns="http://www.w3.org/2000/svg"
   xmlns:svg="http://www.w3.org/2000/svg"><defs
   id="defs5" />
    <g
   transform="translate(-1752.4295,-966.30831)"
   id="g5">
        <g
   transform="matrix(0.700538,0,0,0.700538,1256.86,371.38)"
   id="g4">
            <g
   transform="matrix(1.04797,0,0,0.724801,-96.137954,333.45806)"
   id="g1"
   style="clip-rule:evenodd;fill-rule:evenodd;stroke-linejoin:round;stroke-miterlimit:2">
                <path
   d="M 1143.41,1367.63 H 936.601 c -90.258,0 -164.304,-106.57 -167.487,-241.05 l -0.136,-5.76 c -2.352,-99.36 22.479,-195.884 68.796,-267.417 46.317,-71.534 110.143,-111.937 176.836,-111.937 h 408.47 l -55.75,124.506 c -34.31,76.631 -91.61,123.367 -153.4,125.12 -50.5,1.432 -110.74,3.14 -156.2,4.466 -48.11,1.365 -89.952,49.482 -103.056,118.512 -2.453,12.97 -3.918,24.93 -3.726,34.48 0.898,44.84 28.865,140.29 78.272,177.14 43.92,32.77 97.95,31.21 114.19,41.94 z M 1048.5,1134.3 h 206.8 c 90.26,0 164.31,106.57 167.49,241.05 l 0.13,5.75 c 2.36,99.37 -22.48,195.89 -68.79,267.42 -46.32,71.54 -110.14,111.94 -176.83,111.94 H 768.824 l 55.748,-124.51 c 34.312,-76.63 91.612,-123.36 153.401,-125.12 50.497,-1.43 110.737,-3.14 156.197,-4.46 48.11,-1.37 89.95,-49.49 103.06,-118.51 2.45,-12.98 3.92,-24.93 3.72,-34.49 -0.89,-44.83 -28.86,-140.28 -78.27,-177.14 -43.92,-32.76 -97.95,-31.2 -114.18,-41.93 z"
   id="path1" />
            </g>
            
            <g
   transform="matrix(0.877455,0,0,1,166.497,54.1638)"
   id="g3">
                <path
   d="M 1439.26,1555.28 V 816.71 l 538.78,440.91 -318.28,-32.81 v 330.47 z m 784.55,0 h -220.5 l 2.16,-306.97 -162.88,-129.44 381.22,-302.16 z"
   id="path3" />
            </g><g
   transform="matrix(-1.04797,0,0,-0.724801,3606.33,2146.86)"
   id="g2"
   style="clip-rule:evenodd;fill-rule:evenodd;stroke-linejoin:round;stroke-miterlimit:2">
                <path
   d="m 1116.19,1291.56 c 14.12,-0.3 0,0 0,0 z m 0,-26.09 c 0,0 14.12,0.33 0,0 z M 968.923,741.466 H 1372.23 V 1760.46 H 953.581 c -50.236,0 -98.243,-30.93 -132.673,-85.47 -34.429,-54.54 -52.226,-127.85 -49.182,-202.61 l 0.119,-2.94 c 3.816,-93.75 55.13,-167.55 118.111,-169.86 73.152,-3.1 166.084,-6.75 226.234,-8.02 -16.24,9.6 -34.01,7.74 -77.93,37.05 -49.403,32.98 -73.034,79.84 -73.932,119.96 -0.101,4.48 0.143,9.57 0.657,15.09 6.582,70.31 46.675,122.86 94.285,123.58 33.8,0.52 77.92,1.19 126.39,1.92 V 932.89 c -44.01,0.747 -84.43,1.435 -116.8,1.988 -53.1,0.9 -97.533,60.281 -103.925,138.872 -0.48,5.93 -0.704,11.41 -0.607,16.25 0.898,44.84 24.529,97.2 73.932,134.06 43.92,32.76 61.69,30.68 77.93,41.41 -55.41,-1.31 -138.653,-4.88 -208.616,-8.13 -72.844,-2.84 -132.012,-88.62 -135.964,-197.1 l -0.282,-7.75 c -2.947,-80.9 16.553,-160.051 53.925,-218.876 37.371,-58.826 89.325,-92.147 143.67,-92.148 z"
   id="path2" />
            </g><g
   id="layer3"
   style="clip-rule:evenodd;fill-rule:evenodd;stroke-linejoin:round;stroke-miterlimit:2"
   transform="matrix(1.4274743,0,0,1.4274743,712.26462,870.01301)"><path
     d="m 590.53947,1590.0699 -0.84508,-547.6755 C 589.21738,733.25803 366.07981,765.63101 277.96565,765.63101 v -24.44629 l 250.35472,0.28129 c 146.9953,0.16516 201.65344,152.44278 201.65344,266.96719 0,36.6045 -1.44045,428.5262 -1.14023,658.4027 0.0564,43.2154 -21.20164,93.6241 -55.68994,93.6241 -34.4883,0 -82.60417,0.9105 -82.60417,0.9105"
     id="path2-9"
     style="clip-rule:evenodd;fill-rule:evenodd;stroke-linejoin:round;stroke-miterlimit:2"
     transform="matrix(-0.73414282,0,0,-0.50775064,2030.2312,894.33702)" /></g><g
   id="layer4"
   style="clip-rule:evenodd;fill-rule:evenodd;stroke-width:1000;stroke-linejoin:round;stroke-miterlimit:2;stroke-dasharray:none"
   transform="matrix(1.4274743,0,0,1.4274743,721.43814,870.2169)"><path
     style="clip-rule:nonzero;fill-rule:nonzero;stroke:#000000;stroke-width:5;stroke-linecap:round;stroke-linejoin:miter;stroke-miterlimit:2;stroke-dasharray:none;stroke-opacity:1"
     d="m 2046.9807,-9.7419469 c -147.8942,0 -268.0109,120.1151769 -268.0109,268.0094369 0,147.89424 120.1167,268.01104 268.0109,268.01104 147.8945,0 268.0094,-120.1168 268.0094,-268.01104 0,-147.89426 -120.1149,-268.0094369 -268.0094,-268.0094369 z m 0,20.8961349 c 136.6005,0 247.1133,110.512672 247.1133,247.113302 0,136.60064 -110.5128,247.1133 -247.1133,247.1133 -136.6005,0 -192.2352,-110.51266 -192.2352,-247.1133 0,-136.60063 55.6347,-247.113302 192.2352,-247.113302 z"
     id="path9-2-9" /></g><g
   id="layer5"
   style="clip-rule:evenodd;fill-rule:evenodd;stroke-linejoin:round;stroke-miterlimit:2"
   transform="matrix(1.4274743,0,0,1.4274743,844.27059,869.17253)"><path
     style="clip-rule:nonzero;fill-rule:nonzero;stroke:#000000;stroke-width:5;stroke-linecap:butt;stroke-linejoin:miter;stroke-miterlimit:2;stroke-dasharray:none;stroke-dashoffset:0;stroke-opacity:1;paint-order:fill markers stroke"
     d="m 2785.1972,346.96286 c -35.3754,91.92383 -125.3367,159.14964 -231.245,159.14964 -136.6006,0 -247.1133,-110.51266 -247.1133,-247.1133 0,-136.60063 110.5127,-247.1133 247.1133,-247.1133 109.7415,0 202.6457,71.326309 234.9374,170.20393 l 21.5683,-0.93519 C 2777.0649,71.161752 2674.7792,-9.0102369 2553.9522,-9.0102369 c -147.8942,0 -268.0109,120.1151869 -268.0109,268.0094369 0,147.89424 120.1167,268.01086 268.0109,268.01086 117.0612,0 217.8676,-76.30251 254.3327,-181.01948 0,0 -5.5991,0.95331 -14.1063,1.20813 -3.7789,0.1132 -8.9814,-0.23585 -8.9814,-0.23585 z"
     id="path9-2-9-8" /><g
     id="path4"><path
       style="clip-rule:nonzero;fill-opacity:0;fill-rule:nonzero;stroke-linecap:round;stroke-linejoin:miter"
       d="m 2815.5744,275.23224 a 53.592216,53.592216 0 0 1 -53.5922,53.59222 53.592216,53.592216 0 0 1 -53.5922,-53.59222 53.592216,53.592216 0 0 1 53.5922,-53.59222 53.592216,53.592216 0 0 1 53.5922,53.59222 z"
       id="path6" /><path
       style="clip-rule:nonzero;fill-rule:nonzero;stroke:#000000;stroke-width:5;stroke-linecap:round;stroke-linejoin:miter;stroke-dasharray:none;stroke-opacity:1"
       d="m 2717.9359,261.50052 c 0,42.74088 36.8389,61.59144 76.4708,61.59145 39.6319,-1e-5 71.9708,-18.85057 71.9708,-61.59145 l -16.0376,-5.3e-4 c 0,31.25626 -26.9507,44.59175 -55.9333,44.59176 -28.9826,-10e-6 -60.4334,-13.3355 -60.4334,-44.59176 z"
       id="path7" /></g></g>
        </g>
    </g>
</svg>