<?xml version="1.0" encoding="UTF-8" standalone="no"?>
<!DOCTYPE svg PUBLIC "-//W3C//DTD SVG 1.1//EN" "http://www.w3.org/Graphics/SVG/1.1/DTD/svg11.dtd">
<svg width="100%" height="100%" viewBox="0 0 1076 1076" version="1.1" xmlns="http://www.w3.org/2000/svg" xmlns:xlink="http://www.w3.org/1999/xlink" xml:space="preserve" xmlns:serif="http://www.serif.com/" style="fill-rule:evenodd;clip-rule:evenodd;stroke-linejoin:round;stroke-miterlimit:2;">
    <g transform="matrix(1,0,0,1,-1216,-702)">
        <g transform="matrix(2.18462,0,0,2.18462,-116.094,-306.55)">
            <g transform="matrix(-1,-1.22465e-16,1.22465e-16,-1,1696,1427)">
                <path d="M1013.93,545.073C1058.46,589.605 1086.02,651.109 1086.02,719C1086.02,854.781 975.781,965.018 840,965.018C772.109,965.018 710.605,937.459 666.073,892.927L694.421,864.579C709.438,896.79 741.481,919.723 779.412,921.282C814.729,922.734 846.44,905.321 864.863,877.994L864.982,877.801C868.826,870.706 871.055,859.901 871.991,856.061L868.689,876.337C872.193,876.996 875.787,877.411 879.454,877.562C910.249,878.828 937.424,861.076 949.745,834.798C952.454,827.451 953.55,817.604 954.074,813.941L952.894,832.286C975.135,826.091 991.899,806.129 992.875,781.829C993.991,754.034 972.076,731.902 947.439,725.6C947.343,725.575 946.668,725.471 946.582,725.461C941.724,724.885 941.838,725.171 936.37,726.291L945.283,722.632C945.766,710.819 945.351,698.027 946.237,684.274C947.331,667.316 945.478,643.641 939.605,619.395L1013.93,545.073Z" style="fill:rgb(43,138,255);"/>
            </g>
            <g transform="matrix(1,1.22465e-16,-1.22465e-16,1,16,-11)">
                <path d="M1013.93,545.073C1058.46,589.605 1086.02,651.109 1086.02,719C1086.02,854.781 975.781,965.018 840,965.018C772.109,965.018 710.605,937.459 666.073,892.927L740.395,818.605C755.027,879.019 794.615,942.983 875.768,915.462C954.802,888.659 936.153,815.733 927.174,776.998C922.398,756.396 925.439,728.164 930.304,709.364L922.092,709.395C911.056,708.403 912.233,708.384 911.674,708.227C915.619,708.462 921.147,709.092 931.622,706.09C932.422,705.86 933.157,705.735 933.857,705.448C968.281,691.343 993.008,658.405 994.635,618.829C995.301,602.628 991.993,587.178 985.579,573.421L1013.93,545.073ZM839.731,738.014C845.286,744.02 851.375,762.288 853.733,783.846C856.092,805.405 854.097,824.557 849.972,831.622C849.652,832.171 848.999,832.431 848.389,832.253C847.779,832.074 847.369,831.504 847.395,830.869C847.884,818.77 847.541,802.195 845.631,784.733C843.72,767.271 840.471,751.013 837.379,739.306C837.216,738.692 837.493,738.046 838.05,737.74C838.607,737.435 839.3,737.547 839.731,738.014ZM895.722,734.105C900.563,740.7 904.552,759.539 904.462,781.225C904.373,802.912 900.229,821.718 895.333,828.272C894.953,828.781 894.275,828.965 893.69,828.719C893.104,828.474 892.761,827.86 892.858,827.233C894.709,815.266 896.239,798.758 896.311,781.192C896.384,763.626 894.99,747.106 893.238,735.124C893.146,734.496 893.494,733.885 894.082,733.644C894.67,733.403 895.346,733.593 895.722,734.105Z" style="fill:rgb(254,217,51);"/>
            </g>
        </g>
    </g>
</svg>
